# xmcd
#
# Track frame offsets:
#	150
#	13401
#	28077
#	43482
#	61983
#	81343
#	99592
#	113284
#	125768
#	141092
#	158134
#	176331
#	192696
#	207672
#	221844
#	239994
#	259115
#	270787
#	286715
#	301008
#	317815
#	335495
#
# Disc length: 4691 seconds
#
# Revision: 1
# Processed by: cddbd v1.4PL0 Copyright (c) Steve Scherf et al.
# Submitted via: audiograbber 1.80
#
DISCID=50125116
DTITLE=Various Artist - Hott Country 045
DYEAR=1900
DGENRE=
TTITLE0=Shania Twain - Come On Over
TTITLE1=Jessica Andrews - You Go First ( Do You Wanna Kiss )
TTITLE2=Joe Diffie - The Quittin' kind
TTITLE3=Clint Black - When I Said I Do
TTITLE4=Gary Allan - Smoke rings In The Dark
TTITLE5=MArk Wills - She's In Love
TTITLE6=Kenny Rogers - Slow Dance More
TTITLE7=Mindy McCready - All I Want Is Everything
TTITLE8=Jack Ingram - How Many Days
TTITLE9=Keith Glass - One Of These Nights
TTITLE10=Trace Adkins - Don't Lie
TTITLE11=Ty Herndon - Steam
TTITLE12=Lila McCann - Crush
TTITLE13=South Sixty Five - Baby's Got My Number
TTITLE14=Paul Brandt - It's A Beautiful Thing
TTITLE15=Sammy Kershaw - When You Love Someone
TTITLE16=Matt King - Rub It In
TTITLE17=Oak Ridge Boys - Ain't No Short Way Home
TTITLE18=Claudia Church - It's All Your Fault
TTITLE19=Michelle Wright - When I Found  You
TTITLE20=Terri Clark - Unsung Hero
TTITLE21=Mary Chapin Carpenter - Wherever You Are
EXTD=
EXTT0=
EXTT1=
EXTT2=
EXTT3=
EXTT4=
EXTT5=
EXTT6=
EXTT7=
EXTT8=
EXTT9=
EXTT10=
EXTT11=
EXTT12=
EXTT13=
EXTT14=
EXTT15=
EXTT16=
EXTT17=
EXTT18=
EXTT19=
EXTT20=
EXTT21=
PLAYORDER=
